# xmcd
#
# Track frame offsets: 
#        150
#        28428
#        52236
#        87581
#        116540
#        143760
#        174801
#        229902
#        258937
#
# Disc length: 4011 seconds
#
# Revision: 0
# Processed by: cddbd v1.4PL0 Copyright (c) Steve Scherf et al.
# Submitted via: ExactAudioCopy v0.90b4
#
DISCID=7c0fa909
DTITLE=Eric Clapton - Ringtrick CD 2
DYEAR=1986
DGENRE=Blues
TTITLE0=Holy Mother
TTITLE1=Behind The Mask
TTITLE2=Badge
TTITLE3=Let It Rain
TTITLE4=In The Air Tonight
TTITLE5=Cocaine
TTITLE6=Layla
TTITLE7=Sunshine Of Your Love
TTITLE8=Further On Up The Road
EXTD=
EXTT0=
EXTT1=
EXTT2=
EXTT3=
EXTT4=
EXTT5=
EXTT6=
EXTT7=
EXTT8=
PLAYORDER=
